HIERARCHY
ROOT hip
{
	OFFSET 0.000000 0.000000 0.000000
	CHANNELS 6 Xposition Yposition Zposition Xrotation Zrotation Yrotation 
	JOINT abdomen
	{
		OFFSET 0.000000 3.422050 0.000000
		CHANNELS 3 Xrotation Zrotation Yrotation 
		JOINT chest
		{
			OFFSET 0.000000 8.486693 -0.684411
			CHANNELS 3 Xrotation Zrotation Yrotation 
			JOINT neck
			{
				OFFSET 0.000000 10.266162 -0.273764
				CHANNELS 3 Xrotation Zrotation Yrotation 
				JOINT head
				{
					OFFSET 0.000000 3.148285 0.000000
					CHANNELS 3 Xrotation Zrotation Yrotation 
					End Site
					{
						OFFSET 0.000000 3.148289 0.000000
					}
				}
			}
			JOINT lCollar
			{
				OFFSET 3.422053 6.707223 -0.821293
				CHANNELS 3 Yrotation Zrotation Xrotation 
				JOINT lShldr
				{
					OFFSET 3.285171 0.000000 0.000000
					CHANNELS 3 Zrotation Yrotation Xrotation 
					JOINT lForeArm
					{
						OFFSET 10.129278 0.000000 0.000000
						CHANNELS 3 Yrotation Zrotation Xrotation 
						JOINT lHand
						{
							OFFSET 8.486692 0.000000 0.000000
							CHANNELS 3 Zrotation Yrotation Xrotation 
							End Site
							{
								OFFSET 4.106464 0.000000 0.000000
							}
						}
					}
				}
			}
			JOINT rCollar
			{
				OFFSET -3.558935 6.707223 -0.821293
				CHANNELS 3 Yrotation Zrotation Xrotation 
				JOINT rShldr
				{
					OFFSET -3.148289 0.000000 0.000000
					CHANNELS 3 Zrotation Yrotation Xrotation 
					JOINT rForeArm
					{
						OFFSET -10.266159 0.000000 0.000000
						CHANNELS 3 Yrotation Zrotation Xrotation 
						JOINT rHand
						{
							OFFSET -8.349810 0.000000 0.000000
							CHANNELS 3 Zrotation Yrotation Xrotation 
							End Site
							{
								OFFSET -4.106464 0.000000 0.000000
							}
						}
					}
				}
			}
		}
	}
	JOINT lThigh
	{
		OFFSET 5.338403 -1.642589 1.368821
		CHANNELS 3 Xrotation Zrotation Yrotation 
		JOINT lShin
		{
			OFFSET -2.053232 -20.121670 0.000000
			CHANNELS 3 Xrotation Zrotation Yrotation 
			JOINT lFoot
			{
				OFFSET 0.000000 -19.300380 -1.231939
				CHANNELS 3 Xrotation Yrotation Zrotation 
				End Site
				{
					OFFSET 0.000000 -2.463878 4.653993
				}
			}
		}
	}
	JOINT rThigh
	{
		OFFSET -5.338403 -1.642589 1.368821
		CHANNELS 3 Xrotation Zrotation Yrotation 
		JOINT rShin
		{
			OFFSET 2.053232 -20.121670 0.000000
			CHANNELS 3 Xrotation Zrotation Yrotation 
			JOINT rFoot
			{
				OFFSET 0.000000 -19.300380 -1.231939
				CHANNELS 3 Xrotation Yrotation Zrotation 
				End Site
				{
					OFFSET 0.000000 -2.463878 4.653993
				}
			}
		}
	}
}
MOTION
Frames: 20
Frame Time: 0.033325
7.998947 11.998249 11.058531 -33.000099 0.000000 0.000000 72.998451 0.000001 -0.000001 19.998167 0.000000 0.000000 14.304563 0.000000 0.000000 -29.452995 0.856834 -2.769870 0.000000 0.000000 0.000000 -61.970020 -19.175808 -0.380562 -114.742668 0.000000 0.000000 -44.780323 -5.433381 -35.304436 1.998697 0.000000 0.000000 88.991615 69.821854 29.991453 10.998607 4.996966 0.997376 14.997774 -0.001881 16.998253 -23.097647 51.181679 -30.363852 133.346252 -0.000001 0.000001 48.998291 -0.000680 -1.000834 -9.408648 -53.063389 30.145491 120.456123 -0.000001 0.000001 20.996786 0.000000 0.000000 
7.998946 11.998248 10.823177 -33.000099 0.000000 0.000000 72.998451 0.000001 -0.000001 19.998167 0.000000 0.000000 14.062678 0.000000 0.000000 -31.157984 0.863841 -2.928231 0.000000 0.000000 0.000000 -62.129723 -19.708317 -0.439477 -113.673340 0.000000 0.000000 -44.775852 -5.002221 -36.520306 1.998697 0.000000 0.000000 88.990608 70.528069 29.990473 10.998607 4.996966 0.997376 14.997774 -0.001881 16.998253 -23.839691 50.474884 -30.413126 133.934631 -0.000001 0.000000 48.998291 -0.000680 -1.000834 -10.249475 -52.827858 30.167265 121.574585 -0.000001 0.000001 20.996786 0.000000 0.000000 
7.998946 11.998248 10.587825 -33.000099 0.000000 0.000000 72.998451 0.000001 -0.000001 19.998167 0.000000 0.000000 13.820845 0.000000 0.000000 -32.863758 0.866133 -3.086801 0.000000 0.000000 0.000000 -62.289627 -20.241770 -0.497094 -112.597839 0.000000 0.000000 -44.780563 -4.571062 -37.735367 1.998697 0.000000 0.000000 88.989548 71.234489 29.989422 10.998607 4.996966 0.997376 14.997774 -0.001881 16.998253 -24.570307 49.767380 -30.447521 134.523117 -0.000001 0.000000 48.998291 -0.000680 -1.000834 -11.085949 -52.592045 30.183231 122.693787 -0.000002 0.000001 20.996786 0.000000 0.000000 
7.998946 11.998248 10.352472 -33.000099 0.000000 0.000000 72.998451 0.000001 -0.000001 19.998167 0.000000 0.000000 13.579066 0.000000 0.000000 -34.569530 0.863705 -3.245368 0.000000 0.000000 0.000000 -62.449730 -20.776144 -0.553401 -111.516319 0.000000 0.000000 -44.794434 -4.140208 -38.949471 1.998697 0.000000 0.000000 88.988403 71.941025 29.988298 10.998607 4.996966 0.997376 14.997774 -0.001881 16.998253 -25.290098 49.059395 -30.467670 135.111679 -0.000001 0.000000 48.998291 -0.000680 -1.000834 -11.918083 -52.356079 30.193491 123.813545 -0.000002 0.000001 20.996786 0.000000 0.000000 
7.998946 11.998248 10.117120 -33.000099 0.000000 0.000000 72.998451 0.000001 -0.000001 19.998167 0.000000 0.000000 13.337345 0.000000 0.000000 -36.274521 0.856563 -3.403724 0.000000 0.000000 0.000000 -62.610092 -21.311409 -0.608381 -110.428886 0.000000 0.000000 -44.817432 -3.709963 -40.162434 1.998697 0.000000 0.000000 88.987160 72.647644 29.987068 10.998607 4.996966 0.997376 14.997774 -0.001881 16.998253 -25.999599 48.351116 -30.474136 135.700287 -0.000001 0.000000 48.998291 -0.000680 -1.000834 -12.745865 -52.119976 30.198093 124.933617 -0.000002 0.000001 20.996786 0.000000 0.000000 
7.998946 11.998248 9.881767 -33.000099 0.000000 0.000000 72.998451 0.000001 -0.000001 19.998167 0.000000 0.000000 13.095687 0.000000 0.000000 -37.977974 0.844726 -3.561655 0.000000 0.000000 0.000000 -62.770702 -21.847544 -0.662021 -109.335747 0.000000 0.000000 -44.849491 -3.280623 -41.374081 1.998697 0.000000 0.000000 88.985832 73.354317 29.985743 10.998607 4.996966 0.997376 14.997774 -0.001881 16.998253 -26.699369 47.642792 -30.467501 136.288895 -0.000001 0.000000 48.998291 -0.000680 -1.000834 -13.569318 -51.883869 30.197161 126.053764 -0.000002 0.000001 20.996786 0.000000 0.000000 
7.998946 11.998248 9.646415 -33.000099 0.000000 0.000000 72.998451 0.000001 -0.000001 19.998167 0.000000 0.000000 12.854086 0.000000 0.000000 -39.679096 0.828225 -3.718954 0.000000 0.000000 0.000000 -62.931602 -22.384518 -0.714309 -108.237015 0.000000 0.000000 -44.890594 -2.852491 -42.584278 1.998697 0.000000 0.000000 88.984375 74.060936 29.984308 10.998607 4.996966 0.997376 14.997774 -0.001881 16.998253 -27.389904 46.934635 -30.448294 136.877518 -0.000001 0.000000 48.998291 -0.000680 -1.000834 -14.388433 -51.647812 30.190769 127.173836 -0.000002 0.000001 20.996786 0.000000 0.000000 
7.998946 11.998248 9.411062 -33.000099 0.000000 0.000000 72.998451 0.000001 -0.000001 19.998167 0.000000 0.000000 12.612548 0.000000 0.000000 -41.377151 0.807103 -3.875415 0.000000 0.000000 0.000000 -63.092773 -22.922287 -0.765227 -107.132851 0.000000 0.000000 -44.940651 -2.425859 -43.792835 1.998697 0.000000 0.000000 88.982727 74.767456 29.982691 10.998607 4.996966 0.997376 14.997774 -0.001881 16.998253 -28.071661 46.226849 -30.417002 137.466064 -0.000001 0.000000 48.998291 -0.000680 -1.000834 -15.203209 -51.411846 30.178980 128.293594 -0.000002 0.000001 20.996786 0.000000 0.000000 
7.998946 11.998248 9.175710 -33.000099 0.000000 0.000000 72.998451 0.000001 -0.000001 19.998167 0.000000 0.000000 12.371077 0.000000 0.000000 -43.071362 0.781417 -4.030837 0.000000 0.000000 0.000000 -63.254299 -23.460846 -0.814758 -106.023453 0.000000 0.000000 -44.999588 -2.001019 -44.999584 1.998697 0.000000 0.000000 88.980995 75.473862 29.980965 10.998607 4.996966 0.997376 14.997774 -0.001881 16.998253 -28.745098 45.519630 -30.374115 138.054550 -0.000000 0.000000 48.998291 -0.000680 -1.000834 -16.013676 -51.176113 30.161938 129.412781 -0.000002 0.000001 20.996786 0.000000 0.000000 
7.998946 11.998247 8.940357 -33.000099 0.000000 0.000000 72.998451 0.000001 -0.000001 19.998167 0.000000 0.000000 12.129675 0.000000 0.000000 -44.761005 0.751235 -4.185022 0.000000 0.000000 0.000000 -63.416157 -24.000147 -0.862889 -104.908958 0.000000 0.000000 -44.999641 -2.001272 -43.695698 1.998697 0.000000 0.000000 88.979111 76.180138 29.979076 10.998607 4.996966 0.997376 14.997774 -0.001881 16.998253 -29.410618 44.813190 -30.320074 138.642929 -0.000000 0.000000 48.998291 -0.000680 -1.000834 -16.819811 -50.940613 30.139675 130.531250 -0.000002 0.000001 20.996786 0.000000 0.000000 
7.998946 11.998247 8.705005 -33.000099 0.000000 0.000000 72.998451 0.000001 -0.000001 19.998167 0.000000 0.000000 11.888344 0.000000 0.000000 -46.445343 0.716634 -4.337778 0.000000 0.000000 0.000000 -63.578381 -24.540169 -0.909601 -103.789551 0.000000 0.000000 -44.999706 -2.001526 -42.389946 1.998697 0.000000 0.000000 88.976982 76.886116 29.976971 10.998607 4.996966 0.997376 14.997774 -0.001881 16.998253 -30.068611 44.107704 -30.255301 139.231171 -0.000000 0.000000 48.998291 -0.000680 -1.000834 -17.621637 -50.705460 30.112316 131.648743 -0.000002 0.000001 20.996786 0.000000 0.000000 
7.998946 11.998247 8.469652 -33.000099 0.000000 0.000000 72.998451 0.000001 -0.000001 19.998167 0.000000 0.000000 11.647082 0.000000 0.000000 -48.123653 0.677703 -4.488920 0.000000 0.000000 0.000000 -63.741020 -25.080881 -0.954873 -102.665421 0.000000 0.000000 -44.999763 -2.001776 -41.082657 1.998697 0.000000 0.000000 88.974579 77.591766 29.974604 10.998607 4.996966 0.997376 14.997774 -0.001881 16.998253 -30.719460 43.403397 -30.180212 139.819229 -0.000000 0.000000 48.998291 -0.000680 -1.000834 -18.419163 -50.470722 30.079956 132.765076 -0.000002 0.000001 20.996786 0.000000 0.000000 
7.998946 11.998247 8.234299 -33.000099 0.000000 0.000000 72.998451 0.000001 -0.000001 19.998167 0.000000 0.000000 11.405896 0.000000 0.000000 -49.795246 0.634542 -4.638269 0.000000 0.000000 0.000000 -63.904049 -25.622252 -0.998690 -101.536766 0.000000 0.000000 -44.999836 -2.002025 -39.774178 1.998697 0.000000 0.000000 88.971970 78.297157 29.971977 10.998607 4.996966 0.997376 14.997774 -0.001881 16.998253 -31.363491 42.700428 -30.095177 140.407089 -0.000000 0.000000 48.998291 -0.000680 -1.000834 -19.212389 -50.236462 30.042679 133.880035 -0.000002 0.000001 20.996786 0.000000 0.000000 
7.998946 11.998247 7.998947 -33.000099 0.000000 0.000000 72.998451 0.000001 -0.000001 19.998167 0.000000 0.000000 11.164784 0.000000 0.000000 -51.459423 0.587259 -4.785651 0.000000 0.000000 0.000000 -64.067535 -26.164253 -1.041033 -100.403763 0.000000 0.000000 -44.999905 -2.002272 -38.464832 1.998697 0.000000 0.000000 88.968956 79.002068 29.968996 10.998607 4.996966 0.997376 14.997774 -0.001881 16.998253 -32.001057 41.999001 -30.000582 140.994720 0.000000 0.000000 48.998291 -0.000680 -1.000834 -20.001320 -50.002739 30.000568 134.993393 -0.000002 0.000001 20.996786 0.000000 0.000000 
7.998946 11.998247 8.306715 -33.000099 0.000000 0.000000 72.998451 0.000001 -0.000001 19.998167 0.000000 0.000000 10.923752 0.000000 0.000000 -53.115555 0.535971 -4.930907 0.000000 0.000000 0.000000 -64.231491 -26.706848 -1.081879 -99.266617 0.000000 0.000000 -44.999996 -2.002522 -37.154984 1.998697 0.000000 0.000000 88.972778 78.080132 29.972797 10.998607 4.996966 0.997376 14.997774 -0.001881 16.998253 -31.166037 42.916576 -30.122385 140.226227 -0.000000 0.000000 48.998291 -0.000680 -1.000834 -18.968767 -50.308472 30.054653 133.537125 -0.000002 0.000001 20.996786 0.000000 0.000000 
7.998946 11.998247 8.614484 -33.000099 0.000000 0.000000 72.998451 0.000001 -0.000001 19.998167 0.000000 0.000000 10.682799 0.000000 0.000000 -54.762970 0.480805 -5.073880 0.000000 0.000000 0.000000 -64.395950 -27.250021 -1.121209 -98.125519 0.000000 0.000000 -45.000076 -2.002764 -35.844959 1.998697 0.000000 0.000000 88.976067 77.157532 29.976074 10.998607 4.996966 0.997376 14.997774 -0.001881 16.998253 -30.319763 43.836674 -30.227617 139.457367 -0.000000 0.000000 48.998291 -0.000680 -1.000834 -17.928890 -50.615131 30.100464 132.078247 -0.000002 0.000001 20.996786 0.000000 0.000000 
7.998946 11.998247 8.922253 -33.000099 0.000000 0.000000 72.998451 0.000001 -0.000001 19.998167 0.000000 0.000000 10.441931 0.000000 0.000000 -56.401035 0.421893 -5.214423 0.000000 0.000000 0.000000 -64.560944 -27.793730 -1.159002 -96.980690 0.000000 0.000000 -45.000175 -2.003008 -34.535107 1.998697 0.000000 0.000000 88.978928 76.234421 29.978912 10.998607 4.996966 0.997376 14.997774 -0.001881 16.998253 -29.461498 44.758888 -30.315470 138.688187 -0.000000 0.000000 48.998291 -0.000680 -1.000834 -16.881645 -50.922516 30.137753 130.617233 -0.000002 0.000001 20.996786 0.000000 0.000000 
7.998946 11.998248 9.230021 -33.000099 0.000000 0.000000 72.998451 0.000001 -0.000001 19.998167 0.000000 0.000000 10.201147 0.000000 0.000000 -58.029198 0.359374 -5.352402 0.000000 0.000000 0.000000 -64.726471 -28.337938 -1.195235 -95.832344 0.000000 0.000000 -45.000267 -2.003247 -33.225769 1.998697 0.000000 0.000000 88.981407 75.310867 29.981382 10.998607 4.996966 0.997376 14.997774 -0.001881 16.998253 -28.590408 45.682781 -30.385023 137.918777 -0.000000 0.000000 48.998291 -0.000680 -1.000834 -15.827024 -51.230484 30.166330 129.154572 -0.000002 0.000001 20.996786 0.000000 0.000000 
7.998946 11.998248 9.537790 -33.000099 0.000000 0.000000 72.998451 0.000001 -0.000001 19.998167 0.000000 0.000000 9.960450 0.000000 0.000000 -59.646862 0.293395 -5.487690 0.000000 0.000000 0.000000 -64.892593 -28.882629 -1.229887 -94.680679 0.000000 0.000000 -45.000389 -2.003486 -31.917294 1.998697 0.000000 0.000000 88.983643 74.387032 29.983591 10.998607 4.996966 0.997376 14.997774 -0.001881 16.998253 -27.705627 46.607914 -30.435328 137.149170 -0.000001 0.000000 48.998291 -0.000680 -1.000834 -14.765018 -51.538883 30.185991 127.690689 -0.000002 0.000001 20.996786 0.000000 0.000000 
7.998946 11.998248 9.845559 -33.000099 0.000000 0.000000 72.998451 0.000001 -0.000001 19.998167 0.000000 0.000000 9.719841 0.000000 0.000000 -61.253479 0.224104 -5.620171 0.000000 0.000000 0.000000 -65.059334 -29.427769 -1.262926 -93.525909 0.000000 0.000000 -45.000492 -2.003721 -30.610003 1.998697 0.000000 0.000000 88.985619 73.463036 29.985531 10.998607 4.996966 0.997376 14.997774 -0.001881 16.998253 -26.806202 47.533836 -30.465359 136.379471 -0.000001 0.000000 48.998291 -0.000680 -1.000834 -13.695617 -51.847549 30.196533 126.226105 -0.000002 0.000001 20.996786 0.000000 0.000000 
